<svg width="20" height="19" viewBox="0 0 20 19" fill="none" xmlns="http://www.w3.org/2000/svg">
<path d="M4.69055 18.9429H0.640747V6.77686H4.69055V18.9429ZM14.631 6.4917C17.2954 6.49183 19.2931 8.23056 19.2931 11.9673L19.2921 18.9429H15.2433V12.4341C15.2433 10.7992 14.6573 9.68408 13.1915 9.68408C12.0733 9.68424 11.4071 10.4354 11.1144 11.1616C11.0073 11.4219 10.9806 11.7853 10.9806 12.1489V18.9429H6.93176C6.93211 18.8709 6.98496 7.9147 6.93176 6.77686H10.9806V8.50049C11.518 7.67211 12.4812 6.4917 14.631 6.4917ZM2.6925 0.912598C4.07756 0.912698 4.93087 1.82136 4.95715 3.01416C4.95704 4.18221 4.07694 5.1167 2.66516 5.1167H2.63977C1.28047 5.1167 0.401606 4.18221 0.401489 3.01416C0.401489 1.82129 1.30732 0.912598 2.6925 0.912598Z" fill="#0649E7"/>
</svg>
