<svg width="61" height="61" viewBox="0 0 61 61" fill="none" xmlns="http://www.w3.org/2000/svg">
<path d="M30.5 27.75C37.4036 27.75 43 22.1536 43 15.25C43 8.34644 37.4036 2.75 30.5 2.75C23.5964 2.75 18 8.34644 18 15.25C18 22.1536 23.5964 27.75 30.5 27.75Z" fill="#022183"/>
<path d="M55.3028 52.3029C56.0728 55.5259 53.3175 58.25 50.0038 58.25C45.3261 58.25 38.3246 58.25 30.5 58.25C22.6754 58.25 15.6739 58.25 10.9962 58.25C7.6825 58.25 4.92721 55.5259 5.69718 52.3029C8.37636 41.0881 18.4645 32.75 30.5 32.75C42.5355 32.75 52.6236 41.0881 55.3028 52.3029Z" fill="#022183"/>
</svg>
